<?xml version="1.0" encoding="UTF-8"?>
<svg id="Layer_2" data-name="Layer 2" xmlns="http://www.w3.org/2000/svg" viewBox="0 0 995.17 369.78">
  <g id="Layer_1-2" data-name="Layer 1">
    <g>
      <g>
        <path d="m789.01,190.27c-10.7-.01-19.42-8.73-19.43-19.43v-58.24h32.38v-20.5h-32.38v-28.4h-20.5v28.4h-20.76v20.5h20.76v58.24c0,22.02,17.91,39.93,39.93,39.93h13.04v-20.5h-13.04Z" style="stroke-width: 0px;"/>
        <path d="m877.74,190.27c-10.7-.01-19.42-8.73-19.43-19.43v-58.24h32.38v-20.5h-32.38v-28.4h-20.5v28.4h-20.76v20.5h20.76v58.24c0,22.02,17.91,39.93,39.93,39.93h13.04v-20.5h-13.04Z" style="stroke-width: 0px;"/>
        <g>
          <rect x="905.78" y="63.7" width="21.32" height="21.31" style="stroke-width: 0px;"/>
          <rect x="905.78" y="92.26" width="21.32" height="118.51" style="stroke-width: 0px;"/>
        </g>
        <path d="m184.96,92.2c-10.14,0-19.76,3.25-27.81,9.4-2.78,2.11-5.31,4.52-7.54,7.19-8.72-10.45-21.78-16.61-35.43-16.61-25.41,0-46.09,20.7-46.09,46.14h.05c-.05.68-.05,1.65-.05,3.03v69.42h21.43v-72.45c.02-13.61,11.1-24.69,24.7-24.71,13.61,0,24.68,11.08,24.68,24.7v72.45h21.43v-72.45c.02-13.61,11.1-24.69,24.71-24.71,13.61,0,24.68,11.08,24.68,24.7v72.45h21.42v-72.45c0-25.43-20.68-46.12-46.16-46.12Z" style="stroke-width: 0px;"/>
        <path d="m484.02,110.33h0c-11.04-11.42-24.63-17.51-40.41-18.11-1.53-.05-3.08-.07-4.69.01-.32.01-.67.03-1.05.05l-.38.02c-13.49.87-25.3,5.76-35.18,14.55v-.48l-3.43,3.73c-3.22,3.5-6.16,7.34-8.74,11.43-6.2,9.89-9.32,18.89-9.28,26.76.01,1.47.01,21.52.01,61.47.01,8.5.01,17.87.01,28.13v1.98h21.41v-43.79c9.87,8.78,21.69,13.67,35.18,14.55h.08c.3.02.58.04.84.05l.53.03c1.59.05,3.16.05,4.68,0,15.78-.6,29.37-6.69,40.41-18.11,11.04-11.44,16.64-25.27,16.64-41.13s-5.59-29.71-16.63-41.14Zm-3.61,41.14c0,10.45-3.68,19.57-10.95,27.1-7.28,7.53-16.24,11.55-26.66,11.94-.49.02-.99.02-1.49.02-.48,0-.98,0-1.5-.03-10.04-.4-18.76-4.21-25.94-11.32-7.17-7.11-11.06-15.8-11.56-25.73v-3.88c.22-4.56,1.23-8.99,2.98-13.16,2.89-6.88,7.49-12.59,13.69-16.96,6.18-4.36,13.2-6.72,20.81-7.02,1.03-.03,2.1-.03,3.04,0,10.38.39,19.34,4.4,26.63,11.93,7.27,7.53,10.95,16.65,10.95,27.1Z" style="stroke-width: 0px;"/>
        <path d="m577.02,92.18c-33.84,0-61.38,27.53-61.38,61.42v57.17h20.21v-57.85c0-22.34,18.17-40.51,40.51-40.51h7.81v-20.23h-7.15Z" style="stroke-width: 0px;"/>
        <path d="m713.02,173.15c-.49-1.27-.65-1.27-4.71-1.28h-16.54s-.58.91-.58.91c-2.95,4.52-6.72,8.32-11.21,11.3-14.56,9.65-33.97,8.35-47.18-3.16l-.28-.24,80.28-52.96-.73-1.55c-1.19-2.54-2.57-5.01-4.11-7.35-1.93-2.93-4.04-5.59-6.46-8.12-11.32-11.94-26.6-18.52-43.03-18.52-32.69,0-59.29,26.6-59.29,59.29,0,8.14,1.63,16.05,4.85,23.51,1.35,3.18,3.01,6.26,4.92,9.15,1.95,2.92,4.06,5.58,6.47,8.14,11.31,11.94,26.59,18.51,43.01,18.51,23.84,0,45.25-14.19,54.56-36.14l.31-.74-.29-.75Zm-28.6-50.91l-63.02,41.56-.11-.36c-1.24-3.85-1.87-7.87-1.87-11.96,0-21.54,17.52-39.06,39.06-39.06,9.42,0,18.52,3.41,25.63,9.59l.04-.04c.08.09.17.17.27.27Z" style="stroke-width: 0px;"/>
        <path d="m365.85,148.65c-.3-4.32-1.08-8.61-2.31-12.75-1.35-4.49-3.25-8.83-5.67-12.94-2.41-4.1-5.31-7.96-8.66-11.44l-.17-.18c-5.86-6.36-12.87-11.26-20.83-14.6-.69-.3-1.4-.57-2.17-.87l-1.27-.45c-.27-.09-.56-.19-.81-.27-.98-.33-1.98-.63-2.96-.89-.74-.21-1.47-.39-2.26-.57l-1.6-.36c-.19-.04-.42-.08-.5-.09-.34-.07-.59-.11-.87-.15l-2.73-.43c-.39-.05-.85-.11-1.38-.15l-3.79-.28c-.79-.02-1.62-.05-2.45-.05-15.82,0-30.71,6.17-41.92,17.37-11.21,11.21-17.38,26.1-17.38,41.92,0,32.7,26.61,59.3,59.3,59.3.81,0,1.62-.01,2.31-.04.33-.01.58-.02.91-.05l2.22-.15c.38-.02.64-.06.79-.07.53-.06,1.01-.11,1.49-.18l3.49-.56c.28-.06.58-.12.71-.14l.71-.15c1.74-.38,3.46-.84,5.11-1.36.27-.08.52-.15.75-.24.65-.21,1.15-.39,1.6-.56l.53-.2c.28-.11.53-.2.85-.33l2.8-1.17c.62-.27,1.3-.59,1.99-.94,2.12-1.06,4.2-2.25,6.18-3.55l4.72-3.09v12.36c0,.24.2.43.44.43h22.39c.12,0,.24-.04.31-.12.08-.08.13-.2.13-.31v-61.69Zm-30.9,19.54c-10.74,18.19-28.38,27.75-39.71,21.66-8.77-4.11-18-15.27-23.76-29.99-8.37-21.39-6.24-42.21,4.74-46.52,8.45-3.3,19.7,4.13,28.23,17.47,9.96-9.36,21.63-13.01,29.8-8.18,11.3,6.68,11.62,27.07.7,45.56Z" style="fill: #a00810; stroke-width: 0px;"/>
      </g>
      <g>
        <g>
          <path d="m286.17,264.17c-1.59,0-3,.52-4.23,1.56-1.23,1.04-1.84,2.33-1.84,3.86s.69,2.94,2.07,4.23c1.38,1.29,3.03,2.47,4.96,3.54,1.93,1.07,3.88,2.22,5.84,3.45,1.96,1.23,3.63,2.79,5.01,4.69,1.38,1.9,2.07,4.08,2.07,6.53,0,3.62-1.36,6.7-4.09,9.24-2.73,2.54-6.02,3.81-9.88,3.81-2.45,0-4.73-.54-6.85-1.61-2.11-1.07-3.66-2.5-4.64-4.27v-4.41c2.33,5.15,6.07,7.72,11.22,7.72,3.19,0,5.87-.98,8.04-2.94,2.17-1.96,3.26-4.15,3.26-6.57s-.69-4.46-2.07-6.11c-1.38-1.65-3.05-3.06-5.01-4.23-1.96-1.16-3.91-2.31-5.84-3.45-1.93-1.13-3.59-2.51-4.96-4.14-1.38-1.62-2.07-3.52-2.07-5.7s.87-4.01,2.62-5.52c1.75-1.5,4-2.25,6.76-2.25s5.12,1.07,7.08,3.22v3.77c-1.96-2.94-4.44-4.41-7.45-4.41Z" style="stroke-width: 0px;"/>
          <path d="m286.08,306.08c-2.6,0-5.05-.58-7.3-1.72-2.29-1.16-3.99-2.74-5.07-4.68-.08-.15-.12-.31-.12-.48v-4.41c0-.47.33-.88.79-.98.46-.1.93.14,1.12.57,2.17,4.8,5.54,7.13,10.3,7.13,2.96,0,5.37-.88,7.37-2.68,1.97-1.78,2.93-3.69,2.93-5.83s-.6-3.99-1.84-5.47c-1.3-1.56-2.9-2.91-4.75-4.01-1.96-1.16-3.9-2.31-5.83-3.44-2.02-1.18-3.77-2.65-5.22-4.35-1.53-1.8-2.31-3.94-2.31-6.35s1-4.58,2.97-6.27c1.93-1.66,4.42-2.49,7.41-2.49s5.67,1.19,7.82,3.54c.17.18.26.43.26.68v3.77c0,.44-.29.83-.71.96-.42.13-.88-.04-1.12-.4-1.78-2.67-3.94-3.97-6.61-3.97-1.36,0-2.53.43-3.58,1.32-1,.85-1.49,1.86-1.49,3.1s.57,2.4,1.75,3.5c1.32,1.23,2.92,2.37,4.77,3.4,1.93,1.07,3.91,2.24,5.88,3.47,2.06,1.29,3.84,2.95,5.29,4.95,1.5,2.07,2.26,4.46,2.26,7.11,0,3.89-1.48,7.24-4.41,9.97-2.91,2.71-6.46,4.08-10.56,4.08Zm-10.49-7.15c.88,1.49,2.26,2.72,4.09,3.65,1.97,1,4.12,1.5,6.4,1.5,3.63,0,6.64-1.16,9.2-3.55,2.54-2.37,3.77-5.15,3.77-8.51,0-2.26-.61-4.2-1.88-5.94-1.3-1.79-2.89-3.27-4.73-4.43-1.95-1.22-3.9-2.37-5.79-3.42-1.99-1.1-3.73-2.34-5.16-3.68-1.58-1.48-2.39-3.15-2.39-4.96s.74-3.39,2.19-4.62c1.41-1.19,3.05-1.8,4.88-1.8,2.46,0,4.62.89,6.45,2.64v-.6c-1.72-1.76-3.71-2.62-6.08-2.62-2.53,0-4.53.66-6.1,2.01-1.53,1.31-2.27,2.87-2.27,4.76s.6,3.6,1.83,5.05c1.3,1.53,2.88,2.85,4.71,3.92,1.93,1.14,3.88,2.29,5.84,3.45,2.05,1.22,3.82,2.72,5.27,4.45,1.53,1.83,2.3,4.1,2.3,6.75s-1.21,5.17-3.59,7.32c-2.35,2.12-5.29,3.2-8.71,3.2-4.31,0-7.73-1.68-10.22-5.02v.44Z" style="stroke-width: 0px;"/>
        </g>
        <g>
          <path d="m370.77,302.05v2.57c-4.35,0-8.06-1.46-11.12-4.37-3.07-2.91-4.6-6.63-4.6-11.17v-43.02h2.94v16.73h12.69v2.57h-12.69v23.72c0,3.74,1.24,6.83,3.72,9.28,2.48,2.45,5.5,3.68,9.05,3.68Z" style="stroke-width: 0px;"/>
          <path d="m370.77,305.62c-4.6,0-8.57-1.56-11.81-4.64-3.26-3.09-4.91-7.09-4.91-11.89v-43.02c0-.55.45-1,1-1h2.94c.55,0,1,.45,1,1v15.73h11.69c.55,0,1,.45,1,1v2.57c0,.55-.45,1-1,1h-11.69v22.72c0,3.49,1.12,6.3,3.43,8.57,2.31,2.28,5.04,3.39,8.35,3.39.55,0,1,.45,1,1v2.57c0,.55-.45,1-1,1Zm-14.72-58.56v42.02c0,4.29,1.4,7.71,4.28,10.44,2.66,2.53,5.75,3.86,9.43,4.06v-.58c-3.39-.22-6.33-1.54-8.76-3.93-2.67-2.63-4.02-6-4.02-10v-23.72c0-.55.45-1,1-1h11.69v-.57h-11.69c-.55,0-1-.45-1-1v-15.73h-.94Z" style="stroke-width: 0px;"/>
        </g>
        <g>
          <path d="m459.97,262.7h2.94v41.37h-2.94v-8.37c-3.13,6.25-8.46,9.38-16,9.38-5.15,0-9.47-1.78-12.96-5.33-3.49-3.55-5.24-7.87-5.24-12.96v-24.08h2.94v24.08c0,4.23,1.49,7.91,4.46,11.03,2.97,3.13,6.57,4.69,10.8,4.69s7.95-1.56,11.17-4.69,4.83-6.8,4.83-11.03v-24.08Z" style="stroke-width: 0px;"/>
          <path d="m443.98,306.08c-5.4,0-10-1.89-13.67-5.63-3.67-3.73-5.53-8.33-5.53-13.66v-24.08c0-.55.45-1,1-1h2.94c.55,0,1,.45,1,1v24.08c0,4,1.37,7.38,4.18,10.34,2.8,2.95,6.1,4.38,10.08,4.38s7.42-1.44,10.47-4.41c3.04-2.96,4.52-6.33,4.52-10.31v-24.08c0-.55.45-1,1-1h2.94c.55,0,1,.45,1,1v41.37c0,.55-.45,1-1,1h-2.94c-.55,0-1-.45-1-1v-4.83c-3.4,4.54-8.43,6.84-15,6.84Zm-17.2-42.38v23.08c0,4.79,1.67,8.92,4.95,12.26,3.33,3.39,7.33,5.03,12.25,5.03,7.19,0,12.13-2.89,15.1-8.82.21-.41.67-.63,1.12-.53.45.11.77.51.77.97v7.37h.94v-39.37h-.94v23.08c0,4.49-1.73,8.44-5.13,11.75-3.4,3.3-7.39,4.97-11.87,4.97s-8.37-1.68-11.53-5c-3.14-3.3-4.73-7.25-4.73-11.72v-23.08h-.94Z" style="stroke-width: 0px;"/>
        </g>
        <g>
          <path d="m561.49,235.12v68.95h-2.94v-10.02c-1.84,3.37-4.5,6.05-8,8.04-3.49,1.99-7.08,2.99-10.76,2.99-6.07,0-11.23-2.13-15.49-6.39-4.26-4.26-6.39-9.36-6.39-15.31s2.13-11.05,6.39-15.31,9.42-6.39,15.49-6.39c3.8,0,7.46,1.01,10.99,3.03,3.52,2.02,6.11,4.72,7.77,8.09v-37.69h2.94Zm-40.63,48.31c0,5.18,1.84,9.65,5.52,13.42s8.1,5.65,13.28,5.65,9.65-1.88,13.42-5.65c3.77-3.77,5.65-8.23,5.65-13.38s-1.88-9.64-5.65-13.47c-3.77-3.83-8.23-5.75-13.38-5.75s-9.58,1.9-13.28,5.7c-3.71,3.8-5.56,8.29-5.56,13.47Z" style="stroke-width: 0px;"/>
          <path d="m539.79,306.08c-6.32,0-11.76-2.25-16.2-6.68-4.43-4.43-6.68-9.82-6.68-16.01s2.25-11.58,6.68-16.01,9.88-6.68,16.2-6.68c3.96,0,7.82,1.07,11.48,3.17,2.54,1.46,4.64,3.28,6.27,5.43v-34.16c0-.55.45-1,1-1h2.94c.55,0,1,.45,1,1v68.95c0,.55-.45,1-1,1h-2.94c-.55,0-1-.45-1-1v-6.68c-1.73,2.22-3.91,4.09-6.5,5.57-3.63,2.07-7.42,3.12-11.25,3.12Zm0-43.39c-5.76,0-10.74,2.05-14.78,6.1-4.05,4.04-6.1,8.96-6.1,14.6s2.05,10.56,6.1,14.6c4.04,4.05,9.02,6.1,14.78,6.1,3.48,0,6.93-.96,10.26-2.86,3.31-1.89,5.87-4.46,7.61-7.65.22-.4.68-.6,1.12-.49.44.11.75.51.75.97v9.02h.94v-66.95h-.94v36.69c0,.47-.32.87-.77.97-.45.1-.92-.12-1.12-.53-1.56-3.17-4.04-5.75-7.37-7.66-3.35-1.92-6.88-2.9-10.49-2.9Zm-.14,40.82c-5.43,0-10.14-2-14-5.96-3.85-3.94-5.8-8.7-5.8-14.12s1.97-10.19,5.85-14.17c3.89-3.98,8.6-6,14-6s10.14,2.03,14.09,6.04c3.94,4.01,5.94,8.77,5.94,14.17s-2,10.14-5.95,14.08c-3.95,3.95-8.7,5.95-14.13,5.95Zm.05-38.24c-4.84,0-9.07,1.82-12.57,5.4-3.5,3.59-5.28,7.88-5.28,12.77s1.76,9.16,5.23,12.72c3.51,3.6,7.62,5.35,12.57,5.35s9.16-1.8,12.71-5.36c3.56-3.56,5.36-7.82,5.36-12.67s-1.81-9.15-5.37-12.77c-3.56-3.61-7.82-5.45-12.66-5.45Z" style="stroke-width: 0px;"/>
        </g>
        <g>
          <path d="m619.15,252.68c-1.78,0-2.67-.83-2.67-2.48s.89-2.48,2.67-2.48,2.67.83,2.67,2.48-.89,2.48-2.67,2.48Zm1.47,10.11v41.28h-2.94v-41.28h2.94Z" style="stroke-width: 0px;"/>
          <path d="m620.62,305.07h-2.94c-.55,0-1-.45-1-1v-41.28c0-.55.45-1,1-1h2.94c.55,0,1,.45,1,1v41.28c0,.55-.45,1-1,1Zm-1.94-2h.94v-39.28h-.94v39.28Zm.47-49.39c-2.33,0-3.67-1.27-3.67-3.48s1.34-3.48,3.67-3.48,3.67,1.27,3.67,3.48-1.34,3.48-3.67,3.48Zm0-4.96c-1.39,0-1.67.54-1.67,1.48s.27,1.48,1.67,1.48,1.67-.54,1.67-1.48-.27-1.48-1.67-1.48Z" style="stroke-width: 0px;"/>
        </g>
        <g>
          <path d="m683.16,298.51c-4.23-4.38-6.34-9.48-6.34-15.31s2.14-10.86,6.43-15.12c4.29-4.26,9.45-6.39,15.49-6.39s11.18,2.13,15.44,6.39c4.26,4.26,6.39,9.32,6.39,15.17s-2.08,10.96-6.25,15.31c-4.17,4.35-9.22,6.53-15.17,6.53h-.83c-5.88,0-10.94-2.19-15.17-6.57Zm34.47-15.08c0-5.18-1.85-9.67-5.56-13.47-3.71-3.8-8.14-5.7-13.28-5.7s-9.61,1.92-13.38,5.75c-3.77,3.83-5.65,8.32-5.65,13.47s1.88,9.61,5.65,13.38,8.24,5.65,13.42,5.65,9.61-1.88,13.28-5.65,5.52-8.24,5.52-13.42Z" style="stroke-width: 0px;"/>
          <path d="m699.16,306.08h-.83c-6.14,0-11.48-2.31-15.89-6.88-4.39-4.55-6.62-9.94-6.62-16s2.26-11.4,6.73-15.83c4.46-4.43,9.91-6.68,16.19-6.68s11.72,2.25,16.15,6.68c4.43,4.44,6.68,9.78,6.68,15.88s-2.2,11.47-6.53,16c-4.34,4.54-9.69,6.84-15.89,6.84Zm-.41-43.39c-5.74,0-10.71,2.05-14.79,6.1-4.07,4.05-6.14,8.89-6.14,14.41s2.04,10.44,6.06,14.61c0,0,0,0,0,0,4.01,4.16,8.87,6.27,14.45,6.27h.83c5.63,0,10.49-2.09,14.45-6.22,3.96-4.14,5.97-9.06,5.97-14.61s-2.05-10.41-6.1-14.46c-4.05-4.04-9-6.1-14.74-6.1Zm.09,40.82c-5.43,0-10.18-2-14.13-5.95-3.95-3.95-5.95-8.68-5.95-14.08s2-10.16,5.94-14.17c3.95-4.01,8.69-6.04,14.09-6.04s10.11,2.02,14,6c3.88,3.98,5.85,8.74,5.85,14.17s-1.95,10.18-5.8,14.12c-3.86,3.95-8.57,5.96-14,5.96Zm-.05-38.24c-4.84,0-9.11,1.83-12.66,5.45-3.56,3.62-5.37,7.91-5.37,12.77s1.8,9.11,5.36,12.67c3.56,3.56,7.83,5.36,12.71,5.36s9.1-1.8,12.57-5.35c3.47-3.56,5.23-7.84,5.23-12.72s-1.78-9.18-5.28-12.77c-3.55-3.63-7.66-5.4-12.57-5.4Z" style="stroke-width: 0px;"/>
        </g>
      </g>
    </g>
    <rect width="995.17" height="369.78" style="fill: none; opacity: .5; stroke-width: 0px;"/>
  </g>
</svg>