<?xml version="1.0" encoding="UTF-8"?>
<svg id="Layer_2" data-name="Layer 2" xmlns="http://www.w3.org/2000/svg" viewBox="0 0 951.11 401.78">
  <defs>
    <style>
      .cls-1 {
        stroke: #000;
        stroke-linecap: round;
        stroke-linejoin: round;
        stroke-width: 2px;
      }

      .cls-2, .cls-3, .cls-4 {
        stroke-width: 0px;
      }

      .cls-3 {
        fill: none;
      }

      .cls-4 {
        fill: #a00810;
      }
    </style>
  </defs>
  <g id="Layer_1-2" data-name="Layer 1">
    <g>
      <rect class="cls-3" width="951.11" height="401.78"/>
      <g>
        <g>
          <g>
            <path class="cls-2" d="m812.18,205.77c-10.7-.01-19.42-8.73-19.43-19.43v-58.24h32.38v-20.5h-32.38v-28.4h-20.5v28.4h-20.76v20.5h20.76c1.44,44-13.57,103.37,52.97,98.18v-20.5h-13.04Z"/>
            <g>
              <rect class="cls-2" x="840.63" y="79.2" width="21.32" height="21.31"/>
              <rect class="cls-2" x="840.63" y="107.76" width="21.32" height="118.51"/>
            </g>
          </g>
          <path class="cls-2" d="m206.05,107.7c-13.59-.08-26.68,6.18-35.36,16.6-25.85-32.94-82.8-12.55-81.52,29.53h.05c-.05.68-.05,1.65-.05,3.03v69.42h21.43v-72.45c.02-13.61,11.1-24.69,24.7-24.71,13.61,0,24.68,11.08,24.68,24.7v72.45h21.43v-72.45c.02-13.61,11.1-24.69,24.71-24.71,13.61,0,24.68,11.08,24.68,24.7v72.45h21.42c-2.4-39.66,15.69-117.45-46.16-118.58Z"/>
          <path class="cls-2" d="m505.94,125.83c-20.82-22.76-59.2-24.22-81.71-3.48v-.48c-10.6,10.33-21.98,28.84-21.45,41.92.02-3.28.01,68.37.03,91.58h21.41v-43.79c57.55,48.33,132.92-30.48,81.72-85.75Zm-3.61,41.14c-1.22,50.46-74.28,52.19-78.1,1.99-.86-52.91,76.42-54.95,78.1-1.99Z"/>
          <path class="cls-2" d="m599.36,107.68c-68.38,3.21-62.69,68.36-61.38,118.59h20.21c1.38-39.85-12.87-101.69,48.32-98.36v-20.23h-7.15Z"/>
          <path class="cls-2" d="m735.78,188.65c-.49-1.27-.65-1.27-4.71-1.28h-16.54c-12.04,20.46-41.75,24.92-59.26,8.81l80.28-52.96c-24.43-58.09-114.44-39.36-113.61,23.75-.23,64.22,90.04,82,114.13,22.42l-.29-.75Zm-28.6-50.91l-63.02,41.56c-12.86-36.84,33.71-67.85,62.72-41.79l.04-.04c.08.09.17.17.27.27Z"/>
          <path class="cls-4" d="m387.36,164.15c-3.55-50.31-66.27-75.69-102.34-39.09-51.14,54.02,19.38,132.71,79.09,88.43.17.14-.48,13.37.44,12.78.38-.13,22.39.24,22.7-.12.4-.18-.02-61.72.12-62Zm-30.9,19.54c-22.56,36.42-50.36,26.55-63.47-8.33-16.19-39.12,7.89-67.2,32.98-29.05,29.91-27.5,50.67,4.86,30.5,37.38Z"/>
        </g>
        <g>
          <path class="cls-1" d="m264.15,281.67c-5.11-.19-8.36,6.1-4,9.65,6.07,5.55,17.96,8.02,17.88,18.2.95,14.92-26.7,18.56-25.46,2.76,5.19,14.83,29.87,5.74,20.45-7.91-5.02-6.59-17.54-7.74-17.88-17.51.02-7.86,11.72-10.42,16.46-4.55v3.77c-1.96-2.94-4.44-4.41-7.45-4.41Z"/>
          <path class="cls-1" d="m348.75,319.55v2.57c-8.6.14-15.94-6.72-15.72-15.54,0,0,0-43.02,0-43.02h2.94v16.73h12.69v2.57h-12.69c1.02,10.92-5.23,37,12.78,36.68Z"/>
          <path class="cls-1" d="m437.94,280.2h2.94v41.37h-2.94v-8.37c-4.58,10.74-21.12,12.52-28.96,4.04-8.43-6.75-4.34-27.84-5.24-37.05h2.94c.64,12.75-4.85,39.77,15.26,39.8,21.13-.67,15.29-26.08,15.99-39.8Z"/>
          <path class="cls-1" d="m539.46,252.62v68.95h-2.94v-10.02c-10.38,19.24-41.12,11.16-40.63-10.66-.92-21.61,31.01-30.01,40.63-10.57v-37.69h2.94Zm-40.63,48.31c.37,25.13,37.33,24.95,37.87.05-.57-25.08-37.39-25.31-37.87-.05Z"/>
          <path class="cls-1" d="m597.12,270.18c-3.57.35-3.57-5.31,0-4.96,3.57-.35,3.57,5.31,0,4.96Zm1.47,10.11v41.28h-2.94v-41.28h2.94Z"/>
          <path class="cls-1" d="m661.13,316.01c-20.03-20.68,10.84-50.26,31.03-30.43,20.19,20.51-10.85,50.93-31.03,30.43Zm34.47-15.08c-.49-25.27-37.31-25.03-37.87.05.54,24.91,37.51,25.08,37.87-.05Z"/>
        </g>
      </g>
    </g>
  </g>
</svg>